<?xml version="1.0" standalone="no"?>
<!DOCTYPE svg PUBLIC "-//W3C//DTD SVG 20010904//EN"
 "http://www.w3.org/TR/2001/REC-SVG-20010904/DTD/svg10.dtd">
<svg version="1.0" xmlns="http://www.w3.org/2000/svg"
 width="857.000000pt" height="857.000000pt" viewBox="0 0 857.000000 857.000000"
 preserveAspectRatio="xMidYMid meet">
<metadata>
Created by potrace 1.14, written by Peter Selinger 2001-2017
</metadata>
<g transform="translate(0.000000,857.000000) scale(0.100000,-0.100000)"
fill="#000000" stroke="none">
<path d="M2809 8558 c-11 -4 -20 -18 -20 -33 -1 -14 -2 -28 -3 -32 -2 -7 -9
-53 -22 -138 -2 -16 -6 -41 -9 -55 -3 -14 -7 -47 -11 -75 -3 -27 -7 -57 -9
-65 -6 -34 -16 -97 -19 -125 -2 -16 -7 -46 -10 -65 -6 -40 -16 -101 -21 -145
-4 -28 -14 -91 -20 -125 -1 -8 -6 -40 -10 -70 -4 -30 -9 -64 -11 -75 -2 -10
-6 -37 -9 -60 -4 -22 -8 -51 -10 -65 -5 -35 -17 -112 -20 -130 -3 -17 -15 -93
-20 -130 -2 -14 -11 -74 -20 -135 -9 -60 -23 -153 -31 -205 -17 -108 -20 -129
-28 -185 -3 -22 -14 -96 -25 -165 -11 -69 -23 -147 -27 -175 -3 -27 -7 -57 -9
-65 -3 -18 -15 -92 -21 -135 -2 -16 -6 -41 -9 -55 -2 -14 -7 -45 -10 -70 -2
-25 -6 -54 -9 -65 -2 -11 -7 -42 -10 -70 -4 -27 -9 -57 -11 -65 -2 -8 -6 -37
-10 -65 -3 -27 -12 -88 -20 -135 -7 -47 -16 -105 -19 -130 -3 -25 -13 -88 -21
-140 -21 -132 -33 -207 -40 -260 -3 -25 -10 -70 -15 -100 -5 -30 -12 -73 -15
-95 -3 -22 -12 -83 -20 -135 -8 -52 -17 -113 -20 -135 -3 -22 -10 -65 -15 -95
-5 -30 -12 -77 -16 -105 -3 -27 -8 -59 -10 -69 -2 -11 -8 -54 -14 -96 -6 -42
-12 -86 -15 -98 -2 -12 -11 -70 -20 -130 -8 -59 -18 -119 -20 -133 -4 -23 -33
-219 -40 -269 -2 -14 -6 -38 -9 -55 -2 -16 -10 -66 -16 -110 -7 -44 -13 -87
-15 -95 -2 -8 -6 -37 -9 -65 -4 -27 -9 -57 -11 -65 -2 -8 -6 -37 -10 -65 -5
-46 -20 -144 -30 -205 -2 -14 -16 -104 -30 -200 -14 -96 -28 -186 -31 -200 -2
-14 -7 -43 -9 -65 -3 -22 -10 -65 -15 -95 -5 -30 -12 -73 -15 -95 -3 -22 -12
-83 -20 -135 -7 -52 -16 -113 -20 -135 -3 -23 -7 -50 -9 -60 -2 -11 -7 -42
-10 -70 -4 -27 -8 -61 -11 -75 -3 -14 -7 -38 -9 -55 -18 -123 -22 -150 -36
-240 -6 -38 -13 -81 -15 -95 -2 -14 -8 -56 -14 -95 -6 -38 -13 -86 -16 -105
-2 -19 -6 -46 -9 -60 -2 -14 -7 -47 -11 -73 -4 -27 -8 -56 -10 -65 -1 -10 -8
-51 -14 -92 -11 -71 -15 -99 -27 -180 -3 -19 -11 -75 -19 -125 -8 -49 -17
-110 -20 -135 -3 -25 -8 -52 -10 -60 -2 -8 -7 -42 -11 -75 -3 -33 -7 -62 -9
-65 -4 -6 -12 -66 -20 -135 -4 -38 -15 -105 -22 -127 -4 -17 30 -18 610 -18
l614 0 12 102 c7 57 15 119 17 138 3 19 6 42 9 50 2 8 7 43 10 77 3 34 7 70 9
80 2 10 7 41 10 68 4 28 13 97 21 155 8 58 17 125 20 150 3 25 10 79 15 120 6
41 13 89 15 105 20 152 27 204 30 225 4 27 13 93 20 150 5 47 23 175 30 225 3
22 7 49 8 60 1 11 6 25 9 31 5 8 180 11 608 11 499 0 600 -2 601 -13 1 -8 2
-17 3 -21 1 -5 6 -37 10 -73 4 -36 10 -74 12 -85 2 -11 6 -45 9 -75 3 -30 8
-66 10 -80 3 -14 7 -41 10 -60 14 -111 45 -342 49 -380 4 -25 8 -55 10 -67 3
-12 7 -48 11 -80 3 -32 8 -65 10 -73 2 -8 6 -40 10 -70 3 -30 7 -65 9 -77 3
-12 7 -48 11 -80 3 -32 8 -65 10 -73 2 -8 6 -40 10 -71 3 -31 7 -65 9 -75 2
-11 7 -41 10 -69 3 -27 11 -89 17 -138 l12 -87 681 2 681 3 7 40 c4 22 10 58
13 80 3 22 12 82 21 134 8 51 16 109 19 129 9 68 16 117 20 142 3 14 7 39 9
55 3 17 19 120 36 230 17 110 33 217 35 237 2 20 11 77 19 125 9 48 18 106 21
128 2 22 6 49 9 60 4 23 16 107 22 150 3 31 13 94 20 130 2 10 6 37 9 60 7 49
24 161 30 195 4 22 57 370 70 460 3 19 10 64 16 100 5 36 11 80 14 98 2 18 6
45 9 60 3 15 8 47 11 72 3 25 8 52 10 60 2 8 7 40 10 70 3 30 8 62 10 70 2 8
16 94 30 190 15 96 33 218 41 270 8 52 17 111 19 130 3 19 9 60 15 90 5 30 11
75 14 100 4 25 8 54 10 65 4 21 15 94 21 135 2 14 13 84 24 155 11 72 23 150
26 175 3 25 12 83 20 130 8 47 16 101 19 120 3 19 19 125 36 235 16 110 32
216 35 235 3 19 7 46 10 60 2 14 7 43 10 65 3 22 8 54 10 70 3 17 7 46 9 65 2
19 13 91 25 160 11 69 23 148 27 175 3 28 7 57 9 65 3 18 15 92 21 135 2 17 6
41 9 55 2 14 7 43 10 65 14 94 25 168 44 295 12 74 24 151 26 170 36 237 43
281 50 320 3 14 7 43 10 65 10 80 14 107 19 133 3 15 8 43 10 62 3 19 7 51 10
70 19 119 56 362 61 400 3 25 12 86 20 135 20 125 46 294 51 330 2 17 6 41 9
55 2 14 7 45 10 70 3 25 8 52 10 60 2 8 7 38 10 65 3 28 15 109 26 180 11 72
22 146 25 165 12 79 15 96 20 123 5 25 3 27 -25 28 -17 0 -290 1 -607 1 -480
0 -578 -2 -584 -13 -4 -8 -10 -41 -14 -74 -4 -33 -9 -73 -11 -90 -2 -16 -9
-70 -15 -120 -6 -49 -13 -103 -15 -120 -2 -16 -7 -52 -10 -80 -4 -27 -8 -63
-11 -80 -2 -16 -6 -52 -9 -80 -11 -99 -21 -176 -30 -235 -2 -14 -6 -52 -10
-85 -3 -33 -8 -71 -10 -85 -5 -31 -23 -173 -29 -220 -2 -19 -7 -64 -11 -100
-4 -36 -9 -74 -11 -85 -2 -11 -6 -42 -9 -70 -3 -27 -12 -104 -21 -170 -8 -66
-17 -140 -20 -165 -2 -25 -9 -74 -14 -110 -5 -36 -11 -85 -14 -110 -6 -51 -7
-62 -36 -290 -11 -91 -22 -181 -25 -200 -2 -19 -7 -59 -10 -89 -4 -30 -8 -61
-10 -70 -1 -9 -6 -43 -9 -76 -16 -135 -17 -145 -32 -257 -3 -24 -7 -54 -9 -68
-3 -14 -7 -50 -10 -80 -3 -30 -10 -91 -15 -135 -6 -44 -13 -96 -15 -115 -11
-87 -16 -127 -20 -150 -3 -14 -7 -54 -10 -90 -3 -36 -8 -72 -10 -80 -2 -8 -7
-42 -10 -75 -3 -33 -8 -71 -10 -85 -2 -14 -6 -52 -10 -85 -3 -33 -8 -67 -10
-75 -2 -8 -6 -42 -10 -75 -3 -33 -8 -73 -10 -90 -3 -16 -7 -50 -9 -75 -3 -25
-8 -62 -11 -82 -12 -85 -15 -107 -20 -164 -4 -32 -8 -70 -10 -84 -3 -14 -7
-50 -10 -80 -4 -30 -8 -66 -10 -80 -17 -108 -30 -244 -41 -440 -3 -63 -7 -133
-9 -155 -1 -22 -3 -74 -5 -115 -2 -64 -3 -70 -10 -40 -5 19 -11 55 -14 80 -3
25 -8 59 -11 75 -10 58 -14 90 -20 140 -4 28 -8 57 -10 65 -4 14 -40 252 -51
330 -2 19 -8 60 -14 90 -9 52 -13 84 -25 168 -3 20 -8 48 -10 62 -3 14 -7 42
-10 63 -11 80 -24 168 -31 207 -2 14 -6 43 -9 65 -3 22 -7 51 -10 65 -3 13 -7
42 -10 65 -3 22 -12 81 -20 130 -8 50 -17 110 -20 135 -3 25 -9 70 -15 100 -5
30 -12 75 -15 100 -3 25 -10 70 -15 100 -5 30 -12 78 -15 105 -3 28 -8 61 -10
75 -2 14 -7 48 -10 75 -3 28 -8 66 -10 85 -2 19 -7 58 -10 85 -5 47 -12 98
-20 155 -2 14 -7 50 -10 80 -3 30 -7 66 -10 80 -2 14 -7 48 -10 75 -6 54 -43
371 -50 420 -2 17 -8 64 -14 105 -5 41 -12 98 -15 125 -3 28 -8 61 -10 75 -2
14 -7 52 -11 85 -9 84 -14 124 -20 165 -3 19 -7 55 -10 80 -3 25 -9 77 -14
115 -6 39 -12 90 -15 115 -6 48 -24 196 -30 245 -3 17 -7 57 -11 90 -4 33 -8
71 -10 85 -5 29 -43 334 -50 400 -3 25 -7 56 -10 70 -2 14 -7 50 -10 80 -3 30
-7 66 -10 80 -2 14 -6 50 -9 80 -4 30 -8 66 -10 80 -5 24 -11 82 -22 185 -3
27 -7 51 -9 53 -7 8 -1596 7 -1616 0z m736 -2233 c3 -33 8 -67 9 -75 2 -8 6
-37 10 -65 4 -27 10 -61 12 -75 4 -24 8 -51 19 -122 2 -18 6 -42 9 -53 2 -11
9 -60 15 -110 7 -49 16 -112 21 -140 5 -27 12 -68 15 -90 6 -45 24 -157 30
-196 3 -14 7 -41 9 -60 7 -51 25 -171 30 -199 3 -14 12 -76 21 -138 9 -62 18
-121 20 -131 5 -27 12 -72 29 -196 14 -106 19 -141 31 -250 3 -27 8 -61 10
-75 4 -25 10 -75 20 -160 8 -65 15 -120 19 -155 7 -53 31 -240 40 -320 6 -44
14 -104 21 -150 3 -16 7 -57 10 -90 3 -33 8 -71 10 -85 3 -14 7 -45 10 -70 3
-25 11 -90 18 -145 l13 -100 -431 0 c-279 0 -430 4 -430 10 1 6 4 39 9 75 8
66 10 84 20 155 3 22 8 58 10 80 14 122 18 152 21 175 10 68 15 110 20 160 3
30 7 65 9 77 3 12 7 49 11 82 3 33 8 68 10 79 2 10 6 45 9 78 4 32 9 73 11 89
6 35 13 91 21 155 2 25 6 56 9 70 2 14 6 50 10 80 4 30 8 66 10 80 2 14 6 50
10 80 4 30 8 66 10 80 2 14 7 50 10 80 3 30 8 66 10 80 2 14 7 50 10 80 3 30
8 66 10 80 2 14 6 48 10 75 3 28 8 66 10 85 3 19 9 73 15 120 11 89 19 148 25
190 2 14 6 52 10 85 3 33 8 71 10 85 2 14 6 45 9 70 8 70 17 133 21 160 6 39
16 156 31 370 4 52 8 102 10 110 1 8 3 21 3 29 2 30 10 3 16 -54z"/>
</g>
</svg>
